# Blender v3.2.1 OBJ File: 'doggo-mesh.blend'
# www.blender.org
mtllib Holzzylinder4.mtl
o Holzzylinder.004_Cylinder.018
v -1.912614 1.674006 -0.265125
v -1.589642 1.674006 -0.265125
v -1.912614 1.621997 -0.260002
v -1.589642 1.621997 -0.260002
v -1.912614 1.571987 -0.244832
v -1.589642 1.571987 -0.244832
v -1.912614 1.525898 -0.220197
v -1.589642 1.525898 -0.220197
v -1.912614 1.485500 -0.187043
v -1.589642 1.485500 -0.187043
v -1.912614 1.452346 -0.146645
v -1.589642 1.452346 -0.146645
v -1.912614 1.427711 -0.100556
v -1.589642 1.427711 -0.100556
v -1.912614 1.412541 -0.050546
v -1.589642 1.412541 -0.050546
v -1.912614 1.407418 0.001463
v -1.589642 1.407418 0.001463
v -1.912614 1.412541 0.053471
v -1.589642 1.412541 0.053471
v -1.912614 1.427711 0.103481
v -1.589642 1.427711 0.103481
v -1.912614 1.452346 0.149571
v -1.589642 1.452346 0.149571
v -1.912614 1.485500 0.189968
v -1.589642 1.485500 0.189968
v -1.912614 1.525898 0.223122
v -1.589642 1.525898 0.223122
v -1.912614 1.571987 0.247757
v -1.589642 1.571987 0.247757
v -1.912614 1.621997 0.262928
v -1.589642 1.621997 0.262928
v -1.912614 1.674006 0.268050
v -1.589642 1.674006 0.268050
v -1.912614 1.726014 0.262928
v -1.589642 1.726014 0.262928
v -1.912614 1.776024 0.247757
v -1.589642 1.776024 0.247757
v -1.912614 1.822114 0.223122
v -1.589642 1.822114 0.223122
v -1.912614 1.862511 0.189968
v -1.589642 1.862511 0.189968
v -1.912614 1.895665 0.149571
v -1.589642 1.895665 0.149571
v -1.912614 1.920300 0.103481
v -1.589642 1.920300 0.103481
v -1.912614 1.935471 0.053471
v -1.589642 1.935471 0.053471
v -1.912614 1.940593 0.001463
v -1.589642 1.940593 0.001463
v -1.912614 1.935471 -0.050546
v -1.589642 1.935471 -0.050546
v -1.912614 1.920300 -0.100556
v -1.589642 1.920300 -0.100556
v -1.912614 1.895665 -0.146645
v -1.589642 1.895665 -0.146645
v -1.912614 1.862512 -0.187043
v -1.589642 1.862512 -0.187043
v -1.912614 1.822114 -0.220197
v -1.589642 1.822114 -0.220197
v -1.912614 1.776024 -0.244832
v -1.589642 1.776024 -0.244832
v -1.912614 1.726014 -0.260002
v -1.589642 1.726014 -0.260002
v -1.589642 1.790738 0.001463
v -1.589642 1.781853 0.046134
v -1.589642 1.788495 0.024236
v -1.589642 1.788495 -0.021311
v -1.589642 1.771065 0.066316
v -1.589642 1.756548 0.084005
v -1.589642 1.771065 -0.063391
v -1.589642 1.781853 -0.043209
v -1.589642 1.756548 -0.081080
v -1.589642 1.718677 0.109310
v -1.589642 1.738859 0.098522
v -1.589642 1.738859 -0.095597
v -1.589642 1.674006 -0.115270
v -1.589642 1.696779 -0.113027
v -1.589642 1.629334 -0.106384
v -1.589642 1.651232 -0.113027
v -1.589642 1.718677 -0.106384
v -1.589642 1.696779 0.115952
v -1.589642 1.651232 0.115952
v -1.589642 1.674006 0.118195
v -1.589642 1.609152 0.098522
v -1.589642 1.609152 -0.095597
v -1.589642 1.629334 0.109310
v -1.589642 1.576946 -0.063391
v -1.589642 1.576946 0.066316
v -1.589642 1.557273 0.001463
v -1.589642 1.559516 -0.021311
v -1.589642 1.559516 0.024236
v -1.589642 1.566159 -0.043209
v -1.589642 1.591463 0.084005
v -1.589642 1.566159 0.046134
v -1.589642 1.591463 -0.081080
v -1.912614 1.674006 -0.115270
v -1.912614 1.651232 -0.113027
v -1.912614 1.629334 0.109310
v -1.912614 1.609152 -0.095597
v -1.912614 1.609152 0.098522
v -1.912614 1.651232 0.115952
v -1.912614 1.629334 -0.106384
v -1.912614 1.576946 0.066316
v -1.912614 1.591463 0.084005
v -1.912614 1.576946 -0.063391
v -1.912614 1.557273 0.001463
v -1.912614 1.559516 -0.021311
v -1.912614 1.566159 0.046134
v -1.912614 1.559516 0.024236
v -1.912614 1.566159 -0.043209
v -1.912614 1.591463 -0.081080
v -1.912614 1.790738 0.001463
v -1.912614 1.781853 0.046134
v -1.912614 1.788495 0.024236
v -1.912614 1.788495 -0.021311
v -1.912614 1.771065 0.066316
v -1.912614 1.771065 -0.063391
v -1.912614 1.756548 0.084005
v -1.912614 1.781853 -0.043209
v -1.912614 1.718677 -0.106384
v -1.912614 1.738859 0.098522
v -1.912614 1.738859 -0.095597
v -1.912614 1.696779 -0.113027
v -1.912614 1.674006 0.118195
v -1.912614 1.696779 0.115952
v -1.912614 1.718677 0.109310
v -1.912614 1.756548 -0.081080
vt 1.000000 1.000000
vt 0.968750 0.500000
vt 1.000000 0.500000
vt 0.968750 1.000000
vt 0.937500 0.500000
vt 0.937500 1.000000
vt 0.906250 0.500000
vt 0.906250 1.000000
vt 0.875000 0.500000
vt 0.875000 1.000000
vt 0.843750 0.500000
vt 0.843750 1.000000
vt 0.812500 0.500000
vt 0.812500 1.000000
vt 0.781250 0.500000
vt 0.781250 1.000000
vt 0.750000 0.500000
vt 0.750000 1.000000
vt 0.718750 0.500000
vt 0.718750 1.000000
vt 0.687500 0.500000
vt 0.687500 1.000000
vt 0.656250 0.500000
vt 0.656250 1.000000
vt 0.625000 0.500000
vt 0.625000 1.000000
vt 0.593750 0.500000
vt 0.593750 1.000000
vt 0.562500 0.500000
vt 0.562500 1.000000
vt 0.531250 0.500000
vt 0.531250 1.000000
vt 0.500000 0.500000
vt 0.500000 1.000000
vt 0.468750 0.500000
vt 0.468750 1.000000
vt 0.437500 0.500000
vt 0.437500 1.000000
vt 0.406250 0.500000
vt 0.406250 1.000000
vt 0.375000 0.500000
vt 0.375000 1.000000
vt 0.343750 0.500000
vt 0.343750 1.000000
vt 0.312500 0.500000
vt 0.312500 1.000000
vt 0.281250 0.500000
vt 0.281250 1.000000
vt 0.250000 0.500000
vt 0.250000 1.000000
vt 0.218750 0.500000
vt 0.218750 1.000000
vt 0.187500 0.500000
vt 0.187500 1.000000
vt 0.156250 0.500000
vt 0.156250 1.000000
vt 0.125000 0.500000
vt 0.125000 1.000000
vt 0.093750 0.500000
vt 0.093750 1.000000
vt 0.062500 0.500000
vt 0.144909 0.250000
vt 0.146929 0.270502
vt 0.010000 0.250000
vt 0.355091 0.250000
vt 0.353071 0.229498
vt 0.490000 0.250000
vt 0.062500 1.000000
vt 0.031250 0.500000
vt 0.031250 1.000000
vt 0.000000 0.500000
vt 0.770502 0.353071
vt 0.750000 0.355091
vt 0.796822 0.485388
vt 0.796822 0.014612
vt 0.770502 0.146929
vt 0.790217 0.152909
vt 1.000000 0.843022
vt 1.000000 0.726288
vt 1.000000 0.726288
vt 0.968750 0.843022
vt 0.968750 0.726288
vt 0.968750 0.726288
vt 0.937500 0.843022
vt 0.937500 0.726288
vt 0.937500 0.726288
vt 0.906250 0.843022
vt 0.906250 0.726288
vt 0.906250 0.726288
vt 0.875000 0.843022
vt 0.875000 0.726288
vt 0.875000 0.726288
vt 0.843750 0.843022
vt 0.843750 0.726288
vt 0.843750 0.726288
vt 0.812500 0.843022
vt 0.812500 0.726288
vt 0.812500 0.726288
vt 0.781250 0.843022
vt 0.781250 0.726288
vt 0.781250 0.726288
vt 0.750000 0.843022
vt 0.750000 0.726288
vt 0.750000 0.726288
vt 0.718750 0.843022
vt 0.718750 0.726288
vt 0.718750 0.726288
vt 0.687500 0.843022
vt 0.687500 0.726288
vt 0.687500 0.726288
vt 0.656250 0.843022
vt 0.656250 0.726288
vt 0.656250 0.726288
vt 0.625000 0.843022
vt 0.625000 0.726288
vt 0.625000 0.843022
vt 0.593750 0.843022
vt 0.593750 0.726288
vt 0.593750 0.843022
vt 0.562500 0.843022
vt 0.562500 0.726288
vt 0.562500 0.843022
vt 0.531250 0.843022
vt 0.531250 0.726288
vt 0.531250 0.843022
vt 0.500000 0.843022
vt 0.500000 0.726288
vt 0.500000 0.843022
vt 0.468750 0.843022
vt 0.468750 0.726288
vt 0.468750 0.843022
vt 0.437500 0.843022
vt 0.437500 0.726288
vt 0.437500 0.843022
vt 0.406250 0.843022
vt 0.406250 0.726288
vt 0.406250 0.843022
vt 0.375000 0.843022
vt 0.375000 0.726288
vt 0.375000 0.843022
vt 0.343750 0.843022
vt 0.343750 0.726288
vt 0.343750 0.843022
vt 0.312500 0.843022
vt 0.312500 0.726288
vt 0.312500 0.843022
vt 0.281250 0.843022
vt 0.281250 0.726288
vt 0.281250 0.843022
vt 0.250000 0.843022
vt 0.250000 0.726288
vt 0.250000 0.843022
vt 0.218750 0.843022
vt 0.218750 0.726288
vt 0.218750 0.843022
vt 0.187500 0.843022
vt 0.187500 0.726288
vt 0.187500 0.843022
vt 0.156250 0.843022
vt 0.156250 0.726288
vt 0.156250 0.843022
vt 0.125000 0.843022
vt 0.125000 0.726288
vt 0.125000 0.726288
vt 0.093750 0.843022
vt 0.093750 0.726288
vt 0.093750 0.726288
vt 0.062500 0.843022
vt 0.062500 0.726288
vt 0.062500 0.726288
vt 0.031250 0.843022
vt 0.031250 0.726288
vt 0.031250 0.726288
vt 0.116663 0.449553
vt 0.080294 0.419706
vt 0.175690 0.324310
vt 0.050447 0.383337
vt 0.028269 0.341844
vt 0.162620 0.308385
vt 0.014612 0.296822
vt 0.152909 0.290216
vt 0.014612 0.203178
vt 0.028269 0.158156
vt 0.152909 0.209783
vt 0.050447 0.116663
vt 0.162620 0.191615
vt 0.175690 0.175690
vt 0.080294 0.080294
vt 0.116663 0.050447
vt 0.191615 0.162620
vt 0.158156 0.028269
vt 0.209784 0.152909
vt 0.158156 0.471731
vt 0.191615 0.337380
vt 0.250000 0.490000
vt 0.203178 0.485388
vt 0.229498 0.353071
vt 0.209784 0.347091
vt 0.341844 0.471731
vt 0.296822 0.485388
vt 0.270502 0.353071
vt 0.250000 0.355091
vt 0.290216 0.347091
vt 0.146929 0.229498
vt 0.203178 0.014612
vt 0.250000 0.010000
vt 0.229498 0.146929
vt 0.296822 0.014612
vt 0.250000 0.144909
vt 0.341844 0.028269
vt 0.290216 0.152909
vt 0.383337 0.050447
vt 0.308385 0.162620
vt 0.419706 0.080294
vt 0.449553 0.116663
vt 0.324310 0.175690
vt 0.471731 0.158156
vt 0.337380 0.191615
vt 0.485388 0.203178
vt 0.347091 0.209784
vt 0.485388 0.296822
vt 0.471731 0.341844
vt 0.347091 0.290217
vt 0.449553 0.383337
vt 0.337380 0.308385
vt 0.324310 0.324310
vt 0.419706 0.419706
vt 0.383337 0.449553
vt 0.308385 0.337380
vt 0.270502 0.146929
vt 0.353071 0.270502
vt 0.000000 1.000000
vt 0.658156 0.471731
vt 0.703178 0.485388
vt 0.709783 0.347091
vt 0.750000 0.490000
vt 0.729498 0.353071
vt 0.691615 0.337380
vt 0.841844 0.471731
vt 0.883337 0.449553
vt 0.808385 0.337380
vt 0.919706 0.419706
vt 0.824310 0.324310
vt 0.837379 0.308385
vt 0.949553 0.383337
vt 0.971731 0.341844
vt 0.847091 0.290216
vt 0.985388 0.296822
vt 0.853071 0.270502
vt 0.616663 0.449553
vt 0.580294 0.419706
vt 0.675690 0.324310
vt 0.528269 0.341844
vt 0.550447 0.383337
vt 0.662620 0.308385
vt 0.510000 0.250000
vt 0.514612 0.296822
vt 0.646928 0.270502
vt 0.652909 0.290216
vt 0.646928 0.229498
vt 0.514612 0.203178
vt 0.644909 0.250000
vt 0.790217 0.347091
vt 0.855091 0.250000
vt 0.990000 0.250000
vt 0.985388 0.203178
vt 0.853071 0.229498
vt 0.847091 0.209783
vt 0.971731 0.158156
vt 0.949553 0.116663
vt 0.919706 0.080294
vt 0.837380 0.191615
vt 0.883337 0.050447
vt 0.824310 0.175690
vt 0.841844 0.028269
vt 0.808385 0.162620
vt 0.750000 0.010000
vt 0.750000 0.144909
vt 0.703178 0.014612
vt 0.729498 0.146929
vt 0.709783 0.152909
vt 0.658156 0.028269
vt 0.616663 0.050447
vt 0.691615 0.162620
vt 0.580294 0.080294
vt 0.550447 0.116663
vt 0.675690 0.175690
vt 0.528269 0.158156
vt 0.662620 0.191615
vt 0.652909 0.209783
vt 1.000000 0.843022
vt 0.968750 0.843022
vt 0.937500 0.843022
vt 0.906250 0.843022
vt 0.875000 0.843022
vt 0.843750 0.843022
vt 0.812500 0.843022
vt 0.781250 0.843022
vt 0.750000 0.843022
vt 0.718750 0.843022
vt 0.687500 0.843022
vt 0.656250 0.843022
vt 0.625000 0.726288
vt 0.593750 0.726288
vt 0.562500 0.726288
vt 0.531250 0.726288
vt 0.500000 0.726288
vt 0.468750 0.726288
vt 0.437500 0.726288
vt 0.406250 0.726288
vt 0.375000 0.726288
vt 0.343750 0.726288
vt 0.312500 0.726288
vt 0.281250 0.726288
vt 0.250000 0.726288
vt 0.218750 0.726288
vt 0.187500 0.726288
vt 0.156250 0.726288
vt 0.125000 0.843022
vt 0.093750 0.843022
vt 0.062500 0.843022
vt 0.031250 0.843022
vn 0.0000 -0.0000 -1.0000
vn 0.0000 -0.1951 -0.9808
vn 0.0000 -0.3827 -0.9239
vn 0.0000 -0.5556 -0.8315
vn 0.0000 -0.7071 -0.7071
vn 0.0000 -0.8315 -0.5556
vn 0.0000 -0.9239 -0.3827
vn 0.0000 -0.9808 -0.1951
vn 0.0000 -1.0000 0.0000
vn 0.0000 -0.9808 0.1951
vn 0.0000 -0.9239 0.3827
vn 0.0000 -0.8315 0.5556
vn 0.0000 -0.7071 0.7071
vn 0.0000 -0.5556 0.8315
vn 0.0000 -0.3827 0.9239
vn 0.0000 -0.1951 0.9808
vn 0.0000 -0.0000 1.0000
vn 0.0000 0.1951 0.9808
vn 0.0000 0.3827 0.9239
vn 0.0000 0.5556 0.8315
vn 0.0000 0.7071 0.7071
vn 0.0000 0.8315 0.5556
vn 0.0000 0.9239 0.3827
vn 0.0000 0.9808 0.1951
vn 0.0000 1.0000 0.0000
vn 0.0000 0.9808 -0.1951
vn 0.0000 0.9239 -0.3827
vn 0.0000 0.8315 -0.5556
vn 0.0000 0.7071 -0.7071
vn 0.0000 0.5556 -0.8315
vn 0.0000 0.3827 -0.9239
vn 1.0000 0.0000 0.0000
vn 0.0000 0.1951 -0.9808
vn -1.0000 -0.0000 0.0000
usemtl acid
s 1
f 2/1/1 3/2/2 1/3/1
f 4/4/2 5/5/3 3/2/2
f 6/6/3 7/7/4 5/5/3
f 8/8/4 9/9/5 7/7/4
f 10/10/5 11/11/6 9/9/5
f 12/12/6 13/13/7 11/11/6
f 14/14/7 15/15/8 13/13/7
f 16/16/8 17/17/9 15/15/8
f 18/18/9 19/19/10 17/17/9
f 20/20/10 21/21/11 19/19/10
f 22/22/11 23/23/12 21/21/11
f 24/24/12 25/25/13 23/23/12
f 26/26/13 27/27/14 25/25/13
f 28/28/14 29/29/15 27/27/14
f 30/30/15 31/31/16 29/29/15
f 32/32/16 33/33/17 31/31/16
f 34/34/17 35/35/18 33/33/17
f 36/36/18 37/37/19 35/35/18
f 38/38/19 39/39/20 37/37/19
f 40/40/20 41/41/21 39/39/20
f 42/42/21 43/43/22 41/41/21
f 44/44/22 45/45/23 43/43/22
f 46/46/23 47/47/24 45/45/23
f 48/48/24 49/49/25 47/47/24
f 50/50/25 51/51/26 49/49/25
f 52/52/26 53/53/27 51/51/26
f 54/54/27 55/55/28 53/53/27
f 56/56/28 57/57/29 55/55/28
f 58/58/29 59/59/30 57/57/29
f 60/60/30 61/61/31 59/59/30
f 65/62/32 68/63/32 50/64/32
f 90/65/32 92/66/32 18/67/32
f 62/68/31 63/69/33 61/61/31
f 64/70/33 1/71/1 63/69/33
f 98/72/34 97/73/34 3/74/34
f 31/75/34 102/76/34 99/77/34
f 68/78/10 113/79/9 116/80/10
f 72/81/11 116/82/10 120/83/11
f 71/84/12 120/85/11 118/86/12
f 73/87/13 118/88/12 128/89/13
f 76/90/14 128/91/13 123/92/14
f 81/93/15 123/94/14 121/95/15
f 78/96/16 121/97/15 124/98/16
f 77/99/17 124/100/16 97/101/17
f 80/102/18 97/103/17 98/104/18
f 79/105/19 98/106/18 103/107/19
f 86/108/20 103/109/19 100/110/20
f 96/111/21 100/112/20 112/113/21
f 96/114/21 106/115/22 88/116/22
f 88/117/22 111/118/23 93/119/23
f 93/120/23 108/121/24 91/122/24
f 91/123/24 107/124/25 90/125/25
f 90/126/25 110/127/26 92/128/26
f 92/129/26 109/130/27 95/131/27
f 95/132/27 104/133/28 89/134/28
f 89/135/28 105/136/29 94/137/29
f 94/138/29 101/139/30 85/140/30
f 85/141/30 99/142/31 87/143/31
f 87/144/31 102/145/33 83/146/33
f 83/147/33 125/148/1 84/149/1
f 84/150/1 126/151/2 82/152/2
f 82/153/2 127/154/3 74/155/3
f 74/156/3 122/157/4 75/158/4
f 75/159/4 119/160/5 70/161/5
f 69/162/6 119/163/5 117/164/6
f 66/165/7 117/166/6 114/167/7
f 67/168/8 114/169/7 115/170/8
f 65/171/9 115/172/8 113/173/9
f 2/1/1 4/4/2 3/2/2
f 4/4/2 6/6/3 5/5/3
f 6/6/3 8/8/4 7/7/4
f 8/8/4 10/10/5 9/9/5
f 10/10/5 12/12/6 11/11/6
f 12/12/6 14/14/7 13/13/7
f 14/14/7 16/16/8 15/15/8
f 16/16/8 18/18/9 17/17/9
f 18/18/9 20/20/10 19/19/10
f 20/20/10 22/22/11 21/21/11
f 22/22/11 24/24/12 23/23/12
f 24/24/12 26/26/13 25/25/13
f 26/26/13 28/28/14 27/27/14
f 28/28/14 30/30/15 29/29/15
f 30/30/15 32/32/16 31/31/16
f 32/32/16 34/34/17 33/33/17
f 34/34/17 36/36/18 35/35/18
f 36/36/18 38/38/19 37/37/19
f 38/38/19 40/40/20 39/39/20
f 40/40/20 42/42/21 41/41/21
f 42/42/21 44/44/22 43/43/22
f 44/44/22 46/46/23 45/45/23
f 46/46/23 48/48/24 47/47/24
f 48/48/24 50/50/25 49/49/25
f 50/50/25 52/52/26 51/51/26
f 52/52/26 54/54/27 53/53/27
f 54/54/27 56/56/28 55/55/28
f 56/56/28 58/58/29 57/57/29
f 58/58/29 60/60/30 59/59/30
f 60/60/30 62/68/31 61/61/31
f 60/174/32 58/175/32 73/176/32
f 58/175/32 56/177/32 73/176/32
f 56/177/32 54/178/32 71/179/32
f 54/178/32 52/180/32 72/181/32
f 56/177/32 71/179/32 73/176/32
f 52/180/32 50/64/32 68/63/32
f 50/64/32 48/182/32 65/62/32
f 52/180/32 68/63/32 72/181/32
f 48/182/32 46/183/32 66/184/32
f 46/183/32 44/185/32 69/186/32
f 69/186/32 44/185/32 70/187/32
f 44/185/32 42/188/32 70/187/32
f 42/188/32 40/189/32 75/190/32
f 40/189/32 38/191/32 74/192/32
f 40/189/32 74/192/32 75/190/32
f 42/188/32 75/190/32 70/187/32
f 62/193/32 60/174/32 76/194/32
f 2/195/32 64/196/32 78/197/32
f 64/196/32 62/193/32 81/198/32
f 81/198/32 62/193/32 76/194/32
f 6/199/32 4/200/32 80/201/32
f 4/200/32 2/195/32 77/202/32
f 77/202/32 2/195/32 78/197/32
f 80/201/32 79/203/32 6/199/32
f 77/202/32 80/201/32 4/200/32
f 60/174/32 73/176/32 76/194/32
f 71/179/32 54/178/32 72/181/32
f 81/198/32 78/197/32 64/196/32
f 46/183/32 69/186/32 66/184/32
f 48/182/32 66/184/32 67/204/32
f 48/182/32 67/204/32 65/62/32
f 74/192/32 38/191/32 36/205/32
f 36/205/32 34/206/32 82/207/32
f 34/206/32 32/208/32 84/209/32
f 36/205/32 82/207/32 74/192/32
f 32/208/32 30/210/32 87/211/32
f 30/210/32 28/212/32 85/213/32
f 28/212/32 26/214/32 85/213/32
f 26/214/32 24/215/32 94/216/32
f 85/213/32 26/214/32 94/216/32
f 24/215/32 22/217/32 89/218/32
f 22/217/32 20/219/32 95/220/32
f 24/215/32 89/218/32 94/216/32
f 20/219/32 18/67/32 92/66/32
f 18/67/32 16/221/32 90/65/32
f 20/219/32 92/66/32 95/220/32
f 16/221/32 14/222/32 93/223/32
f 14/222/32 12/224/32 88/225/32
f 88/225/32 12/224/32 96/226/32
f 12/224/32 10/227/32 96/226/32
f 10/227/32 8/228/32 86/229/32
f 8/228/32 6/199/32 79/203/32
f 8/228/32 79/203/32 86/229/32
f 10/227/32 86/229/32 96/226/32
f 30/210/32 85/213/32 87/211/32
f 82/207/32 34/206/32 84/209/32
f 83/230/32 84/209/32 32/208/32
f 14/222/32 88/225/32 93/223/32
f 87/211/32 83/230/32 32/208/32
f 16/221/32 93/223/32 91/231/32
f 16/221/32 91/231/32 90/65/32
f 89/218/32 22/217/32 95/220/32
f 62/68/31 64/70/33 63/69/33
f 64/70/33 2/232/1 1/71/1
f 61/233/34 63/234/34 121/235/34
f 63/234/34 1/236/34 124/237/34
f 61/233/34 121/235/34 123/238/34
f 1/236/34 3/74/34 97/73/34
f 3/74/34 5/239/34 98/72/34
f 1/236/34 97/73/34 124/237/34
f 5/239/34 7/240/34 100/241/34
f 7/240/34 9/242/34 112/243/34
f 112/243/34 9/242/34 106/244/34
f 9/242/34 11/245/34 106/244/34
f 11/245/34 13/246/34 111/247/34
f 13/246/34 15/248/34 111/247/34
f 15/248/34 108/249/34 111/247/34
f 11/245/34 111/247/34 106/244/34
f 61/233/34 123/238/34 59/250/34
f 57/251/34 59/250/34 128/252/34
f 128/252/34 59/250/34 123/238/34
f 53/253/34 55/254/34 118/255/34
f 55/254/34 57/251/34 128/252/34
f 49/256/34 51/257/34 116/258/34
f 51/257/34 53/253/34 120/259/34
f 120/259/34 53/253/34 118/255/34
f 115/260/34 47/261/34 49/256/34
f 113/262/34 115/260/34 49/256/34
f 55/254/34 128/252/34 118/255/34
f 116/258/34 113/262/34 49/256/34
f 120/259/34 116/258/34 51/257/34
f 7/240/34 112/243/34 100/241/34
f 5/239/34 100/241/34 103/263/34
f 5/239/34 103/263/34 98/72/34
f 121/235/34 63/234/34 124/237/34
f 107/264/34 108/249/34 15/248/34
f 15/248/34 17/265/34 107/264/34
f 17/265/34 19/266/34 110/267/34
f 110/267/34 19/266/34 109/268/34
f 19/266/34 21/269/34 109/268/34
f 21/269/34 23/270/34 109/268/34
f 23/270/34 25/271/34 104/272/34
f 25/271/34 27/273/34 105/274/34
f 23/270/34 104/272/34 109/268/34
f 27/273/34 29/275/34 101/276/34
f 29/275/34 31/75/34 99/77/34
f 27/273/34 101/276/34 105/274/34
f 31/75/34 33/277/34 125/278/34
f 33/277/34 35/279/34 126/280/34
f 126/280/34 35/279/34 127/281/34
f 35/279/34 37/282/34 127/281/34
f 37/282/34 39/283/34 122/284/34
f 39/283/34 41/285/34 122/284/34
f 41/285/34 43/286/34 119/287/34
f 122/284/34 41/285/34 119/287/34
f 43/286/34 45/288/34 117/289/34
f 45/288/34 47/261/34 114/290/34
f 43/286/34 117/289/34 119/287/34
f 47/261/34 115/260/34 114/290/34
f 114/290/34 117/289/34 45/288/34
f 37/282/34 122/284/34 127/281/34
f 110/267/34 107/264/34 17/265/34
f 104/272/34 25/271/34 105/274/34
f 101/276/34 29/275/34 99/77/34
f 33/277/34 126/280/34 125/278/34
f 31/75/34 125/278/34 102/76/34
f 68/78/10 65/291/9 113/79/9
f 72/81/11 68/292/10 116/82/10
f 71/84/12 72/293/11 120/85/11
f 73/87/13 71/294/12 118/88/12
f 76/90/14 73/295/13 128/91/13
f 81/93/15 76/296/14 123/94/14
f 78/96/16 81/297/15 121/97/15
f 77/99/17 78/298/16 124/100/16
f 80/102/18 77/299/17 97/103/17
f 79/105/19 80/300/18 98/106/18
f 86/108/20 79/301/19 103/109/19
f 96/111/21 86/302/20 100/112/20
f 96/114/21 112/303/21 106/115/22
f 88/117/22 106/304/22 111/118/23
f 93/120/23 111/305/23 108/121/24
f 91/123/24 108/306/24 107/124/25
f 90/126/25 107/307/25 110/127/26
f 92/129/26 110/308/26 109/130/27
f 95/132/27 109/309/27 104/133/28
f 89/135/28 104/310/28 105/136/29
f 94/138/29 105/311/29 101/139/30
f 85/141/30 101/312/30 99/142/31
f 87/144/31 99/313/31 102/145/33
f 83/147/33 102/314/33 125/148/1
f 84/150/1 125/315/1 126/151/2
f 82/153/2 126/316/2 127/154/3
f 74/156/3 127/317/3 122/157/4
f 75/159/4 122/318/4 119/160/5
f 69/162/6 70/319/5 119/163/5
f 66/165/7 69/320/6 117/166/6
f 67/168/8 66/321/7 114/169/7
f 65/171/9 67/322/8 115/172/8
