# Blender v3.2.1 OBJ File: 'doggo-mesh.blend'
# www.blender.org
mtllib Wackelauge2.mtl
o Wackelauge.002_Sphere
v 1.549321 2.936697 -0.269180
v 1.549321 2.921978 -0.287115
v 1.549321 2.904044 -0.301833
v 1.549321 2.883583 -0.312770
v 1.549321 2.861381 -0.319505
v 1.549321 2.772539 -0.301833
v 1.549321 2.754605 -0.287115
v 1.549321 2.739887 -0.269180
v 1.562148 2.936697 -0.267917
v 1.565647 2.921978 -0.285507
v 1.568519 2.904044 -0.299942
v 1.570652 2.883583 -0.310669
v 1.571966 2.861381 -0.317274
v 1.572410 2.838292 -0.319505
v 1.571966 2.815202 -0.317274
v 1.570652 2.793001 -0.310669
v 1.568519 2.772539 -0.299942
v 1.565647 2.754605 -0.285507
v 1.562148 2.739887 -0.267917
v 1.581346 2.921978 -0.280744
v 1.586979 2.904044 -0.294342
v 1.591164 2.883583 -0.304447
v 1.593742 2.861381 -0.310669
v 1.594612 2.838292 -0.312770
v 1.593742 2.815202 -0.310669
v 1.591164 2.793001 -0.304447
v 1.586979 2.772539 -0.294342
v 1.581346 2.754605 -0.280744
v 1.595815 2.921978 -0.273011
v 1.603992 2.904044 -0.285249
v 1.610068 2.883583 -0.294342
v 1.613810 2.861381 -0.299942
v 1.615073 2.838292 -0.301833
v 1.613810 2.815202 -0.299942
v 1.610068 2.793001 -0.294342
v 1.603992 2.772539 -0.285249
v 1.595815 2.754605 -0.273011
v 1.618904 2.904044 -0.273011
v 1.626637 2.883583 -0.280744
v 1.631400 2.861381 -0.285507
v 1.633008 2.838292 -0.287115
v 1.631400 2.815202 -0.285507
v 1.626637 2.793001 -0.280744
v 1.618904 2.772539 -0.273011
v 1.645835 2.861381 -0.267917
v 1.647726 2.838292 -0.269180
v 1.645835 2.815202 -0.267917
v 1.452806 2.861381 -0.267917
v 1.450916 2.838292 -0.269180
v 1.452806 2.815202 -0.267917
v 1.479738 2.904044 -0.273011
v 1.472004 2.883583 -0.280744
v 1.467242 2.861381 -0.285507
v 1.465634 2.838292 -0.287115
v 1.467242 2.815202 -0.285507
v 1.472004 2.793001 -0.280744
v 1.479738 2.772539 -0.273011
v 1.502827 2.921978 -0.273011
v 1.494650 2.904044 -0.285249
v 1.488574 2.883583 -0.294342
v 1.484832 2.861381 -0.299942
v 1.483569 2.838292 -0.301833
v 1.484832 2.815202 -0.299942
v 1.488574 2.793001 -0.294342
v 1.494650 2.772539 -0.285249
v 1.502827 2.754605 -0.273011
v 1.517295 2.921978 -0.280744
v 1.511663 2.904044 -0.294342
v 1.507477 2.883583 -0.304447
v 1.504900 2.861381 -0.310669
v 1.504030 2.838292 -0.312770
v 1.504900 2.815202 -0.310669
v 1.507477 2.793001 -0.304447
v 1.511663 2.772539 -0.294342
v 1.517295 2.754605 -0.280744
v 1.536493 2.936697 -0.267917
v 1.532994 2.921978 -0.285507
v 1.530123 2.904044 -0.299942
v 1.527989 2.883583 -0.310669
v 1.526675 2.861381 -0.317274
v 1.526232 2.838292 -0.319505
v 1.526675 2.815202 -0.317274
v 1.527989 2.793001 -0.310669
v 1.530123 2.772539 -0.299942
v 1.532994 2.754605 -0.285507
v 1.536493 2.739887 -0.267917
v 1.549321 2.838292 -0.321779
v 1.549321 2.815202 -0.319505
v 1.549321 2.793001 -0.312770
v 1.549321 2.738598 -0.266770
v 1.561920 2.739262 -0.266770
v 1.549321 2.937985 -0.266770
v 1.561920 2.937322 -0.266770
v 1.565928 2.936697 -0.266770
v 1.575558 2.934391 -0.266770
v 1.575558 2.742192 -0.266770
v 1.565928 2.739887 -0.266770
v 1.591645 2.928138 -0.266770
v 1.591645 2.748445 -0.266770
v 1.612663 2.761786 -0.266770
v 1.603419 2.754605 -0.266770
v 1.603419 2.921978 -0.266770
v 1.612663 2.914798 -0.266770
v 1.644119 2.808400 -0.266770
v 1.638106 2.793001 -0.266770
v 1.624025 2.772539 -0.266770
v 1.624025 2.904044 -0.266770
v 1.638106 2.883583 -0.266770
v 1.644119 2.868184 -0.266770
v 1.646448 2.861381 -0.266770
v 1.649014 2.838292 -0.266770
v 1.646448 2.815202 -0.266770
v 1.452194 2.861381 -0.266770
v 1.449628 2.838292 -0.266770
v 1.452194 2.815202 -0.266770
v 1.454522 2.808400 -0.266770
v 1.454522 2.868183 -0.266770
v 1.474616 2.772539 -0.266770
v 1.485978 2.761786 -0.266770
v 1.474616 2.904044 -0.266770
v 1.485978 2.914798 -0.266770
v 1.460536 2.883583 -0.266770
v 1.460536 2.793001 -0.266770
v 1.495223 2.921978 -0.266770
v 1.506997 2.928138 -0.266770
v 1.495223 2.754605 -0.266770
v 1.506997 2.748445 -0.266770
v 1.523084 2.742192 -0.266770
v 1.523084 2.934391 -0.266770
v 1.532714 2.936697 -0.266770
v 1.536721 2.937322 -0.266770
v 1.532714 2.739887 -0.266770
v 1.536721 2.739262 -0.266770
vt 0.565242 0.414290
vt 0.434758 0.335710
vt 0.434758 0.414290
vt 0.572392 0.375000
vt 0.571910 0.363304
vt 0.571457 0.359583
vt 0.569783 0.350643
vt 0.565242 0.335710
vt 0.560769 0.324780
vt 0.555555 0.316198
vt 0.547746 0.305650
vt 0.521706 0.286996
vt 0.532888 0.292579
vt 0.516766 0.284835
vt 0.500000 0.282453
vt 0.478294 0.286996
vt 0.483234 0.284835
vt 0.467112 0.292579
vt 0.452254 0.305650
vt 0.444445 0.316198
vt 0.439231 0.324780
vt 0.430217 0.350643
vt 0.427608 0.375000
vt 0.428543 0.359583
vt 0.428090 0.363304
vt 0.428090 0.386696
vt 0.428543 0.390417
vt 0.430217 0.399357
vt 0.439231 0.425220
vt 0.444445 0.433802
vt 0.452254 0.444350
vt 0.478294 0.463004
vt 0.467112 0.457421
vt 0.483234 0.465165
vt 0.500000 0.467547
vt 0.555555 0.433802
vt 0.516766 0.465165
vt 0.521706 0.463004
vt 0.532888 0.457421
vt 0.547746 0.444350
vt 0.560769 0.425220
vt 0.569783 0.399357
vt 0.571457 0.390417
vt 0.571910 0.386696
vt 0.750000 0.750000
vt 0.718750 0.687500
vt 0.750000 0.687500
vt 0.750000 0.250000
vt 0.718750 0.187500
vt 0.750000 0.187500
vt 0.718750 0.625000
vt 0.750000 0.625000
vt 0.718750 0.183929
vt 0.750000 0.180139
vt 0.718750 0.562500
vt 0.750000 0.562500
vt 0.750000 0.500000
vt 0.718750 0.500000
vt 0.718750 0.437500
vt 0.750000 0.437500
vt 0.718750 0.375000
vt 0.750000 0.375000
vt 0.718750 0.816071
vt 0.750000 0.812500
vt 0.750000 0.819861
vt 0.718750 0.312500
vt 0.750000 0.312500
vt 0.718750 0.750000
vt 0.718750 0.250000
vt 0.718750 0.812500
vt 0.709175 0.812500
vt 0.687500 0.250000
vt 0.687500 0.687500
vt 0.687500 0.197289
vt 0.709175 0.187500
vt 0.687500 0.625000
vt 0.687500 0.562500
vt 0.687500 0.500000
vt 0.687500 0.437500
vt 0.687500 0.375000
vt 0.687500 0.312500
vt 0.656250 0.562500
vt 0.656250 0.500000
vt 0.656250 0.437500
vt 0.656250 0.375000
vt 0.656250 0.312500
vt 0.656250 0.776156
vt 0.687500 0.750000
vt 0.687500 0.802711
vt 0.656250 0.250000
vt 0.656250 0.750000
vt 0.656250 0.687500
vt 0.656250 0.223844
vt 0.656250 0.625000
vt 0.625000 0.312500
vt 0.625000 0.275023
vt 0.625000 0.724977
vt 0.637512 0.250000
vt 0.625000 0.625000
vt 0.625000 0.562500
vt 0.625000 0.500000
vt 0.625000 0.437500
vt 0.625000 0.375000
vt 0.637512 0.750000
vt 0.593750 0.437500
vt 0.593750 0.418350
vt 0.611922 0.312500
vt 0.598645 0.375000
vt 0.625000 0.687500
vt 0.611922 0.687500
vt 0.598645 0.625000
vt 0.593750 0.581650
vt 0.593750 0.500000
vt 0.591965 0.562500
vt 0.593750 0.562500
vt 0.590069 0.500000
vt 0.591965 0.437500
vt 0.908035 0.562500
vt 0.906250 0.500000
vt 0.909930 0.500000
vt 0.908035 0.437500
vt 0.906250 0.437500
vt 0.906250 0.418350
vt 0.906250 0.581650
vt 0.906250 0.562500
vt 0.888078 0.312500
vt 0.875000 0.312500
vt 0.875000 0.275024
vt 0.875000 0.724977
vt 0.875000 0.687500
vt 0.888078 0.687500
vt 0.875000 0.625000
vt 0.901355 0.625000
vt 0.875000 0.562500
vt 0.875000 0.500000
vt 0.875000 0.437500
vt 0.875000 0.375000
vt 0.901355 0.375000
vt 0.843750 0.437500
vt 0.843750 0.375000
vt 0.843750 0.312500
vt 0.843750 0.776156
vt 0.843750 0.750000
vt 0.862488 0.750000
vt 0.843750 0.250000
vt 0.862488 0.250000
vt 0.843750 0.687500
vt 0.843750 0.223844
vt 0.843750 0.625000
vt 0.843750 0.562500
vt 0.843750 0.500000
vt 0.812500 0.687500
vt 0.812500 0.250000
vt 0.812500 0.625000
vt 0.812500 0.562500
vt 0.812500 0.500000
vt 0.812500 0.437500
vt 0.812500 0.375000
vt 0.812500 0.312500
vt 0.812500 0.750000
vt 0.812500 0.802711
vt 0.781250 0.437500
vt 0.781250 0.375000
vt 0.781250 0.816070
vt 0.781250 0.812500
vt 0.790825 0.812500
vt 0.781250 0.312500
vt 0.781250 0.750000
vt 0.781250 0.250000
vt 0.781250 0.687500
vt 0.790825 0.187500
vt 0.812500 0.197289
vt 0.781250 0.625000
vt 0.781250 0.187500
vt 0.781250 0.183929
vt 0.781250 0.562500
vt 0.781250 0.500000
vn 0.0000 0.0000 1.0000
vn -0.0000 0.7041 -0.7101
vn 0.1626 0.5528 -0.8173
vn -0.0000 0.5528 -0.8333
vn -0.0000 -0.7041 -0.7101
vn 0.1092 -0.8286 -0.5491
vn -0.0000 -0.8287 -0.5598
vn 0.1804 0.3805 -0.9070
vn -0.0000 0.3805 -0.9248
vn 0.0854 -0.8818 -0.4637
vn -0.0000 -0.8820 -0.4713
vn 0.1914 0.1939 -0.9622
vn 0.0000 0.1939 -0.9810
vn -0.0000 -0.0000 -1.0000
vn 0.1951 0.0000 -0.9808
vn 0.1914 -0.1939 -0.9622
vn 0.0000 -0.1939 -0.9810
vn 0.1804 -0.3805 -0.9070
vn -0.0000 -0.3805 -0.9248
vn 0.0854 0.8818 -0.4638
vn -0.0000 0.8287 -0.5598
vn 0.0000 0.8820 -0.4713
vn 0.1626 -0.5528 -0.8173
vn -0.0000 -0.5528 -0.8333
vn 0.1385 0.7041 -0.6965
vn 0.1385 -0.7041 -0.6965
vn 0.1092 0.8286 -0.5491
vn 0.1800 0.7847 -0.5932
vn 0.2718 -0.7041 -0.6561
vn 0.3189 0.5528 -0.7699
vn 0.2242 -0.7729 -0.5936
vn 0.1800 -0.7847 -0.5932
vn 0.3539 0.3805 -0.8544
vn 0.3754 0.1939 -0.9063
vn 0.3827 0.0000 -0.9239
vn 0.3754 -0.1939 -0.9063
vn 0.3539 -0.3805 -0.8544
vn 0.3189 -0.5528 -0.7699
vn 0.5450 0.1939 -0.8157
vn 0.5556 0.0000 -0.8315
vn 0.5450 -0.1939 -0.8157
vn 0.5138 -0.3805 -0.7689
vn 0.4630 -0.5528 -0.6929
vn 0.3283 0.7727 -0.5433
vn 0.2718 0.7041 -0.6561
vn 0.2242 0.7729 -0.5936
vn 0.3945 -0.7041 -0.5905
vn 0.3945 0.7041 -0.5905
vn 0.4630 0.5528 -0.6929
vn 0.3283 -0.7727 -0.5433
vn 0.5138 0.3805 -0.7689
vn 0.5893 -0.5528 -0.5893
vn 0.5110 -0.6336 -0.5809
vn 0.5110 0.6336 -0.5809
vn 0.4696 -0.6724 -0.5722
vn 0.6539 0.3805 -0.6539
vn 0.6937 0.1939 -0.6937
vn 0.7071 -0.0000 -0.7071
vn 0.6937 -0.1939 -0.6937
vn 0.6539 -0.3805 -0.6539
vn 0.4696 0.6724 -0.5722
vn 0.8157 -0.1939 -0.5450
vn 0.7468 -0.2893 -0.5988
vn 0.6552 -0.5307 -0.5377
vn 0.7203 -0.3629 -0.5911
vn 0.5893 0.5528 -0.5893
vn 0.6552 0.5307 -0.5377
vn 0.7203 0.3629 -0.5911
vn 0.7468 0.2893 -0.5988
vn 0.8315 0.0000 -0.5556
vn 0.8662 0.1877 -0.4630
vn 0.8157 0.1939 -0.5450
vn 0.8819 0.0000 -0.4714
vn 0.8662 -0.1877 -0.4631
vn -0.8662 0.1877 -0.4630
vn -0.8315 0.0000 -0.5556
vn -0.8819 0.0000 -0.4714
vn -0.8662 -0.1877 -0.4631
vn -0.8157 -0.1939 -0.5451
vn -0.7468 -0.2893 -0.5988
vn -0.7468 0.2893 -0.5988
vn -0.8157 0.1939 -0.5450
vn -0.6552 -0.5307 -0.5377
vn -0.5893 -0.5528 -0.5893
vn -0.5110 -0.6336 -0.5809
vn -0.5110 0.6336 -0.5809
vn -0.5893 0.5528 -0.5893
vn -0.6552 0.5307 -0.5377
vn -0.6539 0.3805 -0.6539
vn -0.7203 0.3629 -0.5911
vn -0.6937 0.1939 -0.6937
vn -0.7071 -0.0000 -0.7071
vn -0.6937 -0.1939 -0.6937
vn -0.6539 -0.3805 -0.6539
vn -0.7203 -0.3629 -0.5911
vn -0.5450 -0.1939 -0.8157
vn -0.5138 -0.3805 -0.7689
vn -0.4630 -0.5528 -0.6929
vn -0.3283 0.7727 -0.5433
vn -0.3945 0.7041 -0.5905
vn -0.4696 0.6724 -0.5722
vn -0.3945 -0.7041 -0.5905
vn -0.4696 -0.6724 -0.5722
vn -0.4630 0.5528 -0.6929
vn -0.3283 -0.7727 -0.5433
vn -0.5138 0.3805 -0.7689
vn -0.5450 0.1939 -0.8157
vn -0.5556 0.0000 -0.8315
vn -0.3189 0.5528 -0.7699
vn -0.2718 -0.7041 -0.6561
vn -0.3539 0.3805 -0.8544
vn -0.3754 0.1939 -0.9063
vn -0.3827 0.0000 -0.9239
vn -0.3754 -0.1939 -0.9063
vn -0.3539 -0.3805 -0.8544
vn -0.3189 -0.5528 -0.7699
vn -0.2718 0.7041 -0.6561
vn -0.2242 0.7729 -0.5936
vn -0.1914 -0.1939 -0.9622
vn -0.1804 -0.3805 -0.9070
vn -0.0855 0.8819 -0.4637
vn -0.1092 0.8286 -0.5491
vn -0.1800 0.7847 -0.5932
vn -0.1626 -0.5528 -0.8173
vn -0.1385 0.7041 -0.6965
vn -0.1385 -0.7041 -0.6965
vn -0.1626 0.5528 -0.8173
vn -0.1800 -0.7847 -0.5932
vn -0.2242 -0.7729 -0.5936
vn -0.1804 0.3805 -0.9070
vn -0.1092 -0.8286 -0.5491
vn -0.0855 -0.8818 -0.4638
vn -0.1914 0.1939 -0.9622
vn -0.1951 -0.0000 -0.9808
usemtl eyes
s off
f 98/1/1 127/2/1 99/3/1
f 92/4/1 131/5/1 130/6/1
f 130/6/1 129/7/1 92/4/1
f 129/7/1 125/8/1 92/4/1
f 125/8/1 124/9/1 121/10/1
f 121/10/1 120/11/1 117/12/1
f 120/11/1 122/13/1 117/12/1
f 117/12/1 113/14/1 114/15/1
f 116/16/1 114/15/1 115/17/1
f 117/12/1 114/15/1 116/16/1
f 116/16/1 123/18/1 118/19/1
f 119/20/1 116/16/1 118/19/1
f 119/20/1 126/21/1 127/2/1
f 127/2/1 128/22/1 90/23/1
f 128/22/1 132/24/1 90/23/1
f 132/24/1 133/25/1 90/23/1
f 90/23/1 91/26/1 97/27/1
f 97/27/1 96/28/1 90/23/1
f 96/28/1 99/3/1 90/23/1
f 99/3/1 101/29/1 100/30/1
f 100/30/1 106/31/1 104/32/1
f 106/31/1 105/33/1 104/32/1
f 104/32/1 112/34/1 111/35/1
f 100/30/1 104/32/1 103/36/1
f 111/35/1 110/37/1 109/38/1
f 109/38/1 108/39/1 107/40/1
f 107/40/1 103/36/1 109/38/1
f 103/36/1 102/41/1 98/1/1
f 98/1/1 95/42/1 92/4/1
f 95/42/1 94/43/1 92/4/1
f 94/43/1 93/44/1 92/4/1
f 125/8/1 121/10/1 119/20/1
f 119/20/1 121/10/1 116/16/1
f 119/20/1 127/2/1 125/8/1
f 127/2/1 90/23/1 99/3/1
f 99/3/1 100/30/1 98/1/1
f 127/2/1 98/1/1 125/8/1
f 100/30/1 103/36/1 98/1/1
f 111/35/1 109/38/1 104/32/1
f 109/38/1 103/36/1 104/32/1
f 92/4/1 125/8/1 98/1/1
f 117/12/1 116/16/1 121/10/1
s 1
f 2/45/2 11/46/3 3/47/4
f 7/48/5 19/49/6 8/50/7
f 3/47/4 12/51/8 4/52/9
f 8/50/7 91/53/10 90/54/11
f 4/52/9 13/55/12 5/56/13
f 87/57/14 13/55/12 14/58/15
f 87/57/14 15/59/16 88/60/17
f 88/60/17 16/61/18 89/62/19
f 93/63/20 1/64/21 92/65/22
f 89/62/19 17/66/23 6/67/24
f 1/64/21 10/68/25 2/45/2
f 7/48/5 17/66/23 18/69/26
f 10/68/25 9/70/27 94/71/28
f 17/66/23 28/72/29 18/69/26
f 10/68/25 21/73/30 11/46/3
f 18/69/26 96/74/31 97/75/32
f 11/46/3 22/76/33 12/51/8
f 97/75/32 91/53/10 19/49/6
f 13/55/12 22/76/33 23/77/34
f 13/55/12 24/78/35 14/58/15
f 14/58/15 25/79/36 15/59/16
f 15/59/16 26/80/37 16/61/18
f 9/70/27 93/63/20 94/71/28
f 17/66/23 26/80/37 27/81/38
f 24/78/35 32/82/39 33/83/40
f 24/78/35 34/84/41 25/79/36
f 26/80/37 34/84/41 35/85/42
f 27/81/38 35/85/42 36/86/43
f 98/87/44 20/88/45 95/89/46
f 27/81/38 37/90/47 28/72/29
f 21/73/30 29/91/48 30/92/49
f 28/72/29 99/93/50 96/74/31
f 21/73/30 31/94/51 22/76/33
f 22/76/33 32/82/39 23/77/34
f 36/86/43 44/95/52 100/96/53
f 30/92/49 29/91/48 103/97/54
f 101/98/55 99/93/50 37/90/47
f 30/92/49 39/99/56 31/94/51
f 31/94/51 40/100/57 32/82/39
f 33/83/40 40/100/57 41/101/58
f 33/83/40 42/102/59 34/84/41
f 35/85/42 42/102/59 43/103/60
f 36/86/43 43/103/60 44/95/52
f 102/104/61 29/91/48 98/87/44
f 41/101/58 47/105/62 42/102/59
f 42/102/59 47/105/62 104/106/63
f 106/107/64 43/103/60 105/108/65
f 106/107/64 100/96/53 44/95/52
f 38/109/66 103/97/54 107/110/67
f 39/99/56 107/110/67 108/111/68
f 39/99/56 108/111/68 109/112/69
f 40/100/57 46/113/70 41/101/58
f 110/114/71 45/115/72 109/112/69
f 46/113/70 110/114/71 111/116/73
f 112/117/74 46/113/70 111/116/73
f 112/117/74 104/106/63 47/105/62
f 113/118/75 49/119/76 114/120/77
f 49/119/76 115/121/78 114/120/77
f 115/121/78 50/122/79 116/123/80
f 117/124/81 48/125/82 113/118/75
f 118/126/83 57/127/84 119/128/85
f 121/129/86 51/130/87 120/131/88
f 120/131/88 52/132/89 122/133/90
f 53/134/91 48/125/82 117/124/81
f 49/119/76 53/134/91 54/135/92
f 49/119/76 55/136/93 50/122/79
f 56/137/94 123/138/95 116/123/80
f 56/137/94 118/126/83 123/138/95
f 54/135/92 63/139/96 55/136/93
f 55/136/93 64/140/97 56/137/94
f 56/137/94 65/141/98 57/127/84
f 125/142/99 58/143/100 124/144/101
f 66/145/102 126/146/103 119/128/85
f 121/129/86 58/143/100 59/147/104
f 126/146/103 66/145/102 127/148/105
f 52/132/89 59/147/104 60/149/106
f 53/134/91 60/149/106 61/150/107
f 54/135/92 61/150/107 62/151/108
f 58/143/100 68/152/109 59/147/104
f 75/153/110 127/148/105 66/145/102
f 60/149/106 68/152/109 69/154/111
f 61/150/107 69/154/111 70/155/112
f 62/151/108 70/155/112 71/156/113
f 62/151/108 72/157/114 63/139/96
f 63/139/96 73/158/115 64/140/97
f 64/140/97 74/159/116 65/141/98
f 67/160/117 125/142/99 129/161/118
f 65/141/98 75/153/110 66/145/102
f 71/156/113 82/162/119 72/157/114
f 72/157/114 83/163/120 73/158/115
f 131/164/121 76/165/122 130/166/123
f 73/158/115 84/167/124 74/159/116
f 130/166/123 76/165/122 77/168/125
f 74/159/116 85/169/126 75/153/110
f 68/152/109 77/168/125 78/170/127
f 85/169/126 132/171/128 128/172/129
f 69/154/111 78/170/127 79/173/130
f 132/171/128 86/174/131 133/175/132
f 70/155/112 79/173/130 80/176/133
f 71/156/113 80/176/133 81/177/134
f 85/169/126 8/50/7 86/174/131
f 79/173/130 3/47/4 4/52/9
f 8/50/7 133/175/132 86/174/131
f 80/176/133 4/52/9 5/56/13
f 81/177/134 5/56/13 87/57/14
f 81/177/134 88/60/17 82/162/119
f 82/162/119 89/62/19 83/163/120
f 1/64/21 131/164/121 92/65/22
f 83/163/120 6/67/24 84/167/124
f 77/168/125 1/64/21 2/45/2
f 84/167/124 7/48/5 85/169/126
f 78/170/127 2/45/2 3/47/4
f 2/45/2 10/68/25 11/46/3
f 7/48/5 18/69/26 19/49/6
f 3/47/4 11/46/3 12/51/8
f 8/50/7 19/49/6 91/53/10
f 4/52/9 12/51/8 13/55/12
f 87/57/14 5/56/13 13/55/12
f 87/57/14 14/58/15 15/59/16
f 88/60/17 15/59/16 16/61/18
f 93/63/20 9/70/27 1/64/21
f 89/62/19 16/61/18 17/66/23
f 1/64/21 9/70/27 10/68/25
f 7/48/5 6/67/24 17/66/23
f 94/71/28 95/89/46 10/68/25
f 95/89/46 20/88/45 10/68/25
f 17/66/23 27/81/38 28/72/29
f 10/68/25 20/88/45 21/73/30
f 97/75/32 19/49/6 18/69/26
f 18/69/26 28/72/29 96/74/31
f 11/46/3 21/73/30 22/76/33
f 13/55/12 12/51/8 22/76/33
f 13/55/12 23/77/34 24/78/35
f 14/58/15 24/78/35 25/79/36
f 15/59/16 25/79/36 26/80/37
f 17/66/23 16/61/18 26/80/37
f 24/78/35 23/77/34 32/82/39
f 24/78/35 33/83/40 34/84/41
f 26/80/37 25/79/36 34/84/41
f 27/81/38 26/80/37 35/85/42
f 98/87/44 29/91/48 20/88/45
f 27/81/38 36/86/43 37/90/47
f 21/73/30 20/88/45 29/91/48
f 28/72/29 37/90/47 99/93/50
f 21/73/30 30/92/49 31/94/51
f 22/76/33 31/94/51 32/82/39
f 101/98/55 37/90/47 100/96/53
f 37/90/47 36/86/43 100/96/53
f 102/104/61 103/97/54 29/91/48
f 103/97/54 38/109/66 30/92/49
f 30/92/49 38/109/66 39/99/56
f 31/94/51 39/99/56 40/100/57
f 33/83/40 32/82/39 40/100/57
f 33/83/40 41/101/58 42/102/59
f 35/85/42 34/84/41 42/102/59
f 36/86/43 35/85/42 43/103/60
f 41/101/58 46/113/70 47/105/62
f 105/108/65 43/103/60 104/106/63
f 43/103/60 42/102/59 104/106/63
f 106/107/64 44/95/52 43/103/60
f 39/99/56 38/109/66 107/110/67
f 109/112/69 45/115/72 40/100/57
f 40/100/57 39/99/56 109/112/69
f 40/100/57 45/115/72 46/113/70
f 46/113/70 45/115/72 110/114/71
f 112/117/74 47/105/62 46/113/70
f 113/118/75 48/125/82 49/119/76
f 49/119/76 50/122/79 115/121/78
f 120/131/88 51/130/87 52/132/89
f 122/133/90 52/132/89 117/124/81
f 52/132/89 53/134/91 117/124/81
f 49/119/76 48/125/82 53/134/91
f 49/119/76 54/135/92 55/136/93
f 116/123/80 50/122/79 55/136/93
f 55/136/93 56/137/94 116/123/80
f 56/137/94 57/127/84 118/126/83
f 54/135/92 62/151/108 63/139/96
f 55/136/93 63/139/96 64/140/97
f 56/137/94 64/140/97 65/141/98
f 119/128/85 57/127/84 65/141/98
f 65/141/98 66/145/102 119/128/85
f 59/147/104 51/130/87 121/129/86
f 121/129/86 124/144/101 58/143/100
f 52/132/89 51/130/87 59/147/104
f 53/134/91 52/132/89 60/149/106
f 54/135/92 53/134/91 61/150/107
f 58/143/100 67/160/117 68/152/109
f 75/153/110 128/172/129 127/148/105
f 60/149/106 59/147/104 68/152/109
f 61/150/107 60/149/106 69/154/111
f 62/151/108 61/150/107 70/155/112
f 62/151/108 71/156/113 72/157/114
f 63/139/96 72/157/114 73/158/115
f 64/140/97 73/158/115 74/159/116
f 67/160/117 58/143/100 125/142/99
f 65/141/98 74/159/116 75/153/110
f 71/156/113 81/177/134 82/162/119
f 72/157/114 82/162/119 83/163/120
f 73/158/115 83/163/120 84/167/124
f 77/168/125 67/160/117 129/161/118
f 129/161/118 130/166/123 77/168/125
f 74/159/116 84/167/124 85/169/126
f 68/152/109 67/160/117 77/168/125
f 128/172/129 75/153/110 85/169/126
f 85/169/126 86/174/131 132/171/128
f 69/154/111 68/152/109 78/170/127
f 70/155/112 69/154/111 79/173/130
f 71/156/113 70/155/112 80/176/133
f 85/169/126 7/48/5 8/50/7
f 79/173/130 78/170/127 3/47/4
f 8/50/7 90/54/11 133/175/132
f 80/176/133 79/173/130 4/52/9
f 81/177/134 80/176/133 5/56/13
f 81/177/134 87/57/14 88/60/17
f 82/162/119 88/60/17 89/62/19
f 1/64/21 76/165/122 131/164/121
f 83/163/120 89/62/19 6/67/24
f 77/168/125 76/165/122 1/64/21
f 84/167/124 6/67/24 7/48/5
f 78/170/127 77/168/125 2/45/2
