# Blender v3.2.1 OBJ File: 'doggo.blend'
# www.blender.org
mtllib wood.mtl
o Body_Cube
v 0.830645 1.000000 -2.769935
v 1.000000 0.830645 -2.769935
v 0.950397 0.950397 -2.769935
v 1.000000 -0.830645 -2.769935
v 0.830645 -1.000000 -2.769935
v 0.950397 -0.950397 -2.769935
v 1.000000 0.830645 2.769935
v 0.830645 1.000000 2.769935
v 0.950397 0.950397 2.769935
v 0.830645 -1.000000 2.769935
v 1.000000 -0.830645 2.769935
v 0.950397 -0.950397 2.769935
v -1.000000 0.830645 -2.769935
v -0.830645 1.000000 -2.769935
v -0.950397 0.950397 -2.769935
v -0.830645 -1.000000 -2.769935
v -1.000000 -0.830645 -2.769935
v -0.950397 -0.950397 -2.769935
v -0.830645 1.000000 2.769935
v -1.000000 0.830645 2.769935
v -0.950397 0.950397 2.769935
v -1.000000 -0.830645 2.769935
v -0.830645 -1.000000 2.769935
v -0.950397 -0.950397 2.769935
vt 0.353831 0.500000
vt 0.146169 0.750000
vt 0.146169 0.500000
vt 0.603831 0.000000
vt 0.396169 0.250000
vt 0.396169 0.000000
vt 0.603831 1.000000
vt 0.375000 0.978831
vt 0.603831 0.750000
vt 0.853831 0.500000
vt 0.646169 0.750000
vt 0.646169 0.500000
vt 0.603831 0.500000
vt 0.396169 0.750000
vt 0.396169 0.500000
vt 0.125000 0.500000
vt 0.375000 0.000000
vt 0.375000 0.250000
vt 0.625000 0.500000
vt 0.625000 0.750000
vt 0.875000 0.750000
vt 0.853831 0.750000
vt 0.625000 0.250000
vt 0.625000 0.000000
vt 0.375000 0.750000
vt 0.353831 0.750000
vt 0.375000 0.500000
vt 0.375000 0.478831
vt 0.603831 0.250000
vt 0.375000 0.771169
vt 0.381200 0.756200
vt 0.618800 0.756200
vt 0.625000 0.771169
vt 0.625000 0.978831
vt 0.618800 0.993800
vt 0.396169 1.000000
vt 0.381200 0.993800
vt 0.125000 0.750000
vt 0.875000 0.500000
vt 0.375000 0.271169
vt 0.381200 0.256200
vt 0.618800 0.256200
vt 0.625000 0.271169
vt 0.625000 0.478831
vt 0.618800 0.493800
vt 0.381200 0.493800
vn 0.0000 -1.0000 0.0000
vn -1.0000 0.0000 0.0000
vn 0.0000 0.0000 1.0000
vn 0.0000 1.0000 0.0000
vn 1.0000 0.0000 0.0000
vn -0.3827 -0.9239 0.0000
vn -0.9239 -0.3827 0.0000
vn 0.3827 0.9239 0.0000
vn 0.9239 0.3827 0.0000
vn -0.3827 0.9239 0.0000
vn -0.9239 0.3827 0.0000
vn 0.3827 -0.9239 0.0000
vn 0.9239 -0.3827 0.0000
vn 0.0000 0.0000 -1.0000
usemtl Material
s off
f 5/1/1 23/2/1 16/3/1
f 20/4/2 17/5/2 22/6/2
f 20/7/3 23/8/3 7/9/3
f 14/10/4 8/11/4 1/12/4
f 2/13/5 11/14/5 4/15/5
f 23/2/6 18/16/6 16/3/6
f 24/17/7 17/5/7 18/18/7
f 8/11/8 3/19/8 1/12/8
f 9/20/9 2/13/9 3/19/9
f 14/10/10 21/21/10 19/22/10
f 15/23/11 20/4/11 21/24/11
f 5/1/12 12/25/12 10/26/12
f 6/27/13 11/14/13 12/25/13
f 2/13/14 5/28/14 13/29/14
f 5/1/1 10/26/1 23/2/1
f 20/4/2 13/29/2 17/5/2
f 23/8/3 10/30/3 11/14/3
f 10/30/3 12/31/3 11/14/3
f 11/14/3 7/9/3 23/8/3
f 7/9/3 9/32/3 8/33/3
f 8/33/3 19/34/3 20/7/3
f 19/34/3 21/35/3 20/7/3
f 20/7/3 22/36/3 23/8/3
f 22/36/3 24/37/3 23/8/3
f 7/9/3 8/33/3 20/7/3
f 14/10/4 19/22/4 8/11/4
f 2/13/5 7/9/5 11/14/5
f 23/2/6 24/38/6 18/16/6
f 24/17/7 22/6/7 17/5/7
f 8/11/8 9/20/8 3/19/8
f 9/20/9 7/9/9 2/13/9
f 14/10/10 15/39/10 21/21/10
f 15/23/11 13/29/11 20/4/11
f 5/1/12 6/27/12 12/25/12
f 6/27/13 4/15/13 11/14/13
f 5/28/14 16/40/14 17/5/14
f 16/40/14 18/41/14 17/5/14
f 17/5/14 13/29/14 5/28/14
f 13/29/14 15/42/14 14/43/14
f 14/43/14 1/44/14 2/13/14
f 1/44/14 3/45/14 2/13/14
f 2/13/14 4/15/14 5/28/14
f 4/15/14 6/46/14 5/28/14
f 13/29/14 14/43/14 2/13/14
